<?xml version="1.0" standalone="no"?>
<!DOCTYPE svg PUBLIC "-//W3C//DTD SVG 20010904//EN"
 "http://www.w3.org/TR/2001/REC-SVG-20010904/DTD/svg10.dtd">
<svg version="1.0" xmlns="http://www.w3.org/2000/svg"
 width="50.000000pt" height="50.000000pt" viewBox="0 0 50.000000 50.000000"
 preserveAspectRatio="xMidYMid meet">

<g transform="translate(0.000000,50.000000) scale(0.100000,-0.100000)"
fill="#000000" stroke="none">
<path d="M97 494 c-4 -4 -7 -10 -7 -13 0 -3 83 -5 185 -3 l185 3 0 -115 c0
-109 -1 -116 -20 -116 -13 0 -20 7 -20 20 0 17 -7 20 -45 20 -38 0 -45 -3 -45
-20 0 -18 -7 -20 -55 -20 -30 0 -55 -4 -55 -10 0 -5 56 -11 133 -13 l132 -3
-132 -2 c-81 -1 -133 -6 -133 -12 0 -6 52 -10 135 -10 112 0 137 3 141 15 4 8
1 21 -5 28 -6 7 -12 66 -13 133 l-3 119 -186 3 c-102 1 -188 -1 -192 -4z"/>
<path d="M80 430 c-11 -11 -20 -29 -20 -40 0 -11 9 -29 20 -40 11 -11 16 -20
11 -20 -26 0 -41 -34 -41 -91 0 -38 -6 -69 -16 -84 -11 -17 -13 -29 -6 -41 7
-13 5 -25 -10 -45 -11 -14 -18 -35 -16 -45 3 -18 17 -19 248 -19 231 0 245 1
248 19 2 10 -5 31 -16 45 -14 19 -17 32 -11 43 20 35 -24 78 -60 59 -25 -14
-33 -38 -21 -61 7 -13 6 -21 -5 -30 -22 -18 -48 5 -35 30 12 23 4 47 -21 61
-37 19 -79 -24 -59 -61 13 -25 -13 -48 -35 -30 -11 9 -12 17 -4 31 10 20 -3
59 -21 59 -6 0 -10 23 -10 50 0 47 2 52 30 64 17 7 44 31 61 55 30 40 31 43
15 59 -16 16 -19 15 -50 -21 -26 -31 -41 -39 -77 -44 -38 -5 -42 -4 -27 8 29
23 33 64 9 88 -26 26 -55 27 -81 1z m70 -15 c15 -18 10 -45 -12 -59 -35 -22
-74 27 -48 59 16 19 44 19 60 0z m150 -32 c0 -18 -57 -77 -86 -89 -33 -14 -34
-16 -34 -69 0 -30 -4 -55 -10 -55 -18 0 -31 -39 -21 -59 8 -14 7 -22 -4 -31
-22 -19 -48 5 -34 31 11 22 -1 53 -26 63 -11 4 -15 21 -15 71 l0 65 43 0 c73
1 120 16 146 49 22 29 41 40 41 24z m-205 -253 c0 -18 -6 -26 -23 -28 -13 -2
-25 3 -28 12 -10 26 4 48 28 44 17 -2 23 -10 23 -28z m120 0 c0 -18 -6 -26
-23 -28 -13 -2 -25 3 -28 12 -10 26 4 48 28 44 17 -2 23 -10 23 -28z m120 0
c0 -18 -6 -26 -23 -28 -24 -4 -38 18 -28 44 3 9 15 14 28 12 17 -2 23 -10 23
-28z m120 0 c0 -18 -6 -26 -23 -28 -13 -2 -25 3 -28 12 -10 26 4 48 28 44 17
-2 23 -10 23 -28z m-347 -62 c7 -7 12 -20 12 -30 0 -15 -9 -18 -50 -18 -41 0
-50 3 -50 18 0 10 5 23 12 30 15 15 61 15 76 0z m120 0 c7 -7 12 -20 12 -30 0
-15 -9 -18 -50 -18 -41 0 -50 3 -50 18 0 10 5 23 12 30 15 15 61 15 76 0z
m120 0 c7 -7 12 -20 12 -30 0 -15 -9 -18 -50 -18 -41 0 -50 3 -50 18 0 10 5
23 12 30 15 15 61 15 76 0z m120 0 c7 -7 12 -20 12 -30 0 -15 -9 -18 -50 -18
-41 0 -50 3 -50 18 0 25 20 42 50 42 14 0 31 -5 38 -12z"/>
</g>
</svg>
