<?xml version="1.0" standalone="no"?>
<!DOCTYPE svg PUBLIC "-//W3C//DTD SVG 20010904//EN"
 "http://www.w3.org/TR/2001/REC-SVG-20010904/DTD/svg10.dtd">
<svg version="1.0" xmlns="http://www.w3.org/2000/svg"
 width="50.000000pt" height="50.000000pt" viewBox="0 0 50.000000 50.000000"
 preserveAspectRatio="xMidYMid meet">

<g transform="translate(0.000000,50.000000) scale(0.100000,-0.100000)"
fill="#000000" stroke="none">
<path d="M370 493 c-51 -19 -79 -78 -61 -126 7 -17 7 -36 1 -51 -11 -29 -2
-40 17 -24 8 7 37 12 64 13 40 1 55 7 77 28 36 37 37 96 2 132 -26 25 -73 39
-100 28z m85 -38 c33 -33 33 -78 -1 -112 -21 -21 -32 -25 -64 -20 -21 3 -43 0
-49 -6 -8 -8 -11 -4 -11 13 0 14 -3 42 -6 62 -12 74 77 118 131 63z"/>
<path d="M390 420 c0 -16 5 -30 10 -30 6 0 10 14 10 30 0 17 -4 30 -10 30 -5
0 -10 -13 -10 -30z"/>
<path d="M390 360 c0 -5 5 -10 10 -10 6 0 10 5 10 10 0 6 -4 10 -10 10 -5 0
-10 -4 -10 -10z"/>
<path d="M150 423 c-40 -15 -50 -35 -50 -100 0 -38 6 -76 16 -94 24 -47 15
-71 -36 -95 -50 -24 -64 -37 -74 -71 l-7 -23 186 0 186 0 -7 23 c-10 34 -24
47 -74 71 -51 24 -60 48 -36 95 17 31 24 140 11 161 -8 14 -68 40 -87 39 -7 0
-20 -3 -28 -6z m75 -25 c14 -6 28 -21 30 -32 8 -37 -1 -100 -19 -138 -26 -54
-16 -82 36 -103 44 -17 78 -42 78 -57 0 -4 -74 -8 -165 -8 -91 0 -165 4 -165
8 0 15 34 40 78 57 52 21 62 49 36 103 -24 50 -28 129 -9 159 17 26 58 31 100
11z"/>
</g>
</svg>
