<?xml version="1.0" standalone="no"?>
<!DOCTYPE svg PUBLIC "-//W3C//DTD SVG 20010904//EN"
 "http://www.w3.org/TR/2001/REC-SVG-20010904/DTD/svg10.dtd">
<svg version="1.0" xmlns="http://www.w3.org/2000/svg"
 width="50.000000pt" height="50.000000pt" viewBox="0 0 50.000000 50.000000"
 preserveAspectRatio="xMidYMid meet">

<g transform="translate(0.000000,50.000000) scale(0.100000,-0.100000)"
fill="#000000" stroke="none">
<path d="M70 250 l0 -230 110 0 c67 0 110 4 110 10 0 6 -40 10 -100 10 l-100
0 0 210 0 210 110 0 110 0 0 -50 0 -50 50 0 50 0 0 -55 c0 -30 5 -55 10 -55 6
0 10 28 10 63 0 62 0 63 -53 115 l-53 52 -127 0 -127 0 0 -230z m295 160 l29
-30 -32 0 c-29 0 -32 3 -32 30 0 17 1 30 3 30 2 0 16 -13 32 -30z"/>
<path d="M140 290 c0 -27 3 -30 30 -30 27 0 30 3 30 30 0 27 -3 30 -30 30 -27
0 -30 -3 -30 -30z m40 0 c0 -5 -4 -10 -10 -10 -5 0 -10 5 -10 10 0 6 5 10 10
10 6 0 10 -4 10 -10z"/>
<path d="M220 290 c0 -6 30 -10 70 -10 40 0 70 4 70 10 0 6 -30 10 -70 10 -40
0 -70 -4 -70 -10z"/>
<path d="M140 210 c0 -27 3 -30 30 -30 27 0 30 3 30 30 0 27 -3 30 -30 30 -27
0 -30 -3 -30 -30z m40 0 c0 -5 -4 -10 -10 -10 -5 0 -10 5 -10 10 0 6 5 10 10
10 6 0 10 -4 10 -10z"/>
<path d="M374 215 c4 -10 -2 -19 -17 -24 -65 -25 -83 -109 -34 -158 20 -21 37
-28 67 -28 106 0 132 148 33 186 -15 5 -21 14 -17 24 4 11 0 15 -16 15 -16 0
-20 -4 -16 -15z m71 -60 c50 -49 15 -135 -55 -135 -41 0 -80 39 -80 80 0 70
86 105 135 55z"/>
<path d="M380 133 c0 -14 -7 -35 -17 -45 -19 -21 -6 -24 20 -4 18 14 24 76 7
76 -5 0 -10 -12 -10 -27z"/>
<path d="M220 210 c0 -13 100 -13 120 0 11 7 -5 10 -52 10 -39 0 -68 -4 -68
-10z"/>
<path d="M462 189 c2 -7 10 -15 17 -17 8 -3 12 1 9 9 -2 7 -10 15 -17 17 -8 3
-12 -1 -9 -9z"/>
<path d="M140 130 c0 -27 3 -30 30 -30 27 0 30 3 30 30 0 27 -3 30 -30 30 -27
0 -30 -3 -30 -30z m40 0 c0 -5 -4 -10 -10 -10 -5 0 -10 5 -10 10 0 6 5 10 10
10 6 0 10 -4 10 -10z"/>
<path d="M220 130 c0 -5 11 -10 25 -10 14 0 25 5 25 10 0 6 -11 10 -25 10 -14
0 -25 -4 -25 -10z"/>
</g>
</svg>
