<?xml version="1.0" standalone="no"?>
<!DOCTYPE svg PUBLIC "-//W3C//DTD SVG 20010904//EN"
 "http://www.w3.org/TR/2001/REC-SVG-20010904/DTD/svg10.dtd">
<svg version="1.0" xmlns="http://www.w3.org/2000/svg"
 width="32.000000pt" height="32.000000pt" viewBox="0 0 32.000000 32.000000"
 preserveAspectRatio="xMidYMid meet">

<g transform="translate(0.000000,32.000000) scale(0.100000,-0.100000)"
fill="#000000" stroke="none">
<path d="M200 246 c0 -19 -4 -38 -10 -41 -26 -16 -4 -25 60 -25 l70 0 0 50 0
50 -60 0 -60 0 0 -34z m100 -16 c0 -28 -2 -30 -40 -30 -38 0 -40 2 -40 30 0
28 2 30 40 30 38 0 40 -2 40 -30z"/>
<path d="M30 170 l0 -80 60 0 c33 0 60 -4 60 -10 0 -5 -11 -10 -25 -10 -14 0
-25 -4 -25 -10 0 -6 27 -10 60 -10 33 0 60 4 60 10 0 6 -11 10 -25 10 -14 0
-25 5 -25 10 0 6 27 10 60 10 l60 0 0 35 c0 19 -4 35 -10 35 -5 0 -10 -11 -10
-25 l0 -25 -110 0 -110 0 0 60 0 60 65 0 c37 0 65 4 65 10 0 6 -32 10 -75 10
l-75 0 0 -80z"/>
</g>
</svg>
