<?xml version="1.0" standalone="no"?>
<!DOCTYPE svg PUBLIC "-//W3C//DTD SVG 20010904//EN"
 "http://www.w3.org/TR/2001/REC-SVG-20010904/DTD/svg10.dtd">
<svg version="1.0" xmlns="http://www.w3.org/2000/svg"
 width="64.000000pt" height="64.000000pt" viewBox="0 0 64.000000 64.000000"
 preserveAspectRatio="xMidYMid meet">

<g transform="translate(0.000000,64.000000) scale(0.100000,-0.100000)"
fill="#000000" stroke="none">
<path d="M238 585 c-91 -32 -95 -35 -72 -53 10 -8 15 -16 9 -18 -53 -21 -60
-30 -68 -84 -6 -44 -4 -61 10 -88 17 -31 17 -34 1 -43 -60 -34 -104 -77 -112
-113 -12 -47 0 -70 40 -74 19 -2 33 -11 39 -25 10 -22 13 -22 235 -22 224 0
225 0 235 23 7 15 18 22 36 22 37 0 53 23 46 68 -6 36 -26 60 -93 108 l-29 22
17 33 c20 38 19 118 0 142 -7 8 -26 20 -42 27 -28 12 -29 14 -13 25 22 17 23
16 -65 48 -87 32 -88 32 -174 2z m215 -41 c-1 -5 -30 -18 -65 -30 l-63 -21
-73 25 c-40 13 -71 26 -69 29 3 2 35 15 72 28 l67 23 66 -22 c37 -13 66 -27
65 -32z m-180 -50 c43 -14 51 -14 93 0 48 16 64 14 64 -8 0 -13 -59 -28 -110
-28 -28 0 -110 13 -110 17 0 6 12 35 14 35 1 0 23 -7 49 -16z m-73 -19 c0 -13
-5 -35 -11 -48 -9 -21 -7 -32 16 -71 14 -25 24 -50 20 -55 -3 -6 -28 -22 -55
-37 -55 -30 -74 -53 -84 -102 -7 -27 -12 -32 -37 -32 -26 0 -29 3 -29 34 0 53
28 79 138 133 2 0 -8 20 -23 43 -19 31 -23 45 -15 54 5 8 9 22 9 32 -4 40 2
55 24 64 36 15 47 11 47 -15z m309 6 c12 -12 17 -27 14 -45 -3 -14 0 -33 7
-41 10 -12 6 -23 -19 -60 -36 -54 -36 -54 -13 -53 23 2 98 -46 112 -71 5 -11
10 -33 10 -50 0 -27 -3 -31 -28 -31 -24 0 -30 6 -45 49 -15 43 -26 55 -77 86
-33 20 -60 39 -60 42 0 3 12 27 27 54 24 41 26 52 15 69 -6 11 -12 31 -12 45
0 20 5 25 25 25 14 0 33 -8 44 -19z m-189 -42 c14 0 41 3 60 6 32 6 37 4 50
-20 11 -20 11 -30 2 -43 -6 -9 -19 -32 -28 -50 -42 -83 -126 -83 -168 0 -9 18
-22 41 -28 50 -9 13 -9 23 2 43 13 24 18 26 50 20 19 -3 46 -6 60 -6z m-37
-174 c39 -19 39 -19 77 2 l39 21 49 -29 c70 -40 92 -71 92 -130 l0 -49 -220 0
-220 0 0 50 c0 40 5 56 28 80 25 29 101 80 112 76 3 -1 22 -10 43 -21z"/>
<path d="M341 559 c-13 -5 -22 -12 -19 -15 8 -8 58 7 58 17 0 11 -8 11 -39 -2z"/>
<path d="M230 242 c0 -4 20 -18 45 -30 l46 -22 39 20 c22 11 40 25 40 30 0 6
-18 1 -40 -10 l-40 -20 -40 20 c-43 22 -50 24 -50 12z"/>
<path d="M110 120 c0 -5 5 -10 10 -10 6 0 10 5 10 10 0 6 -4 10 -10 10 -5 0
-10 -4 -10 -10z"/>
<path d="M160 120 c0 -5 5 -10 10 -10 6 0 10 5 10 10 0 6 -4 10 -10 10 -5 0
-10 -4 -10 -10z"/>
<path d="M210 120 c0 -5 5 -10 10 -10 6 0 10 5 10 10 0 6 -4 10 -10 10 -5 0
-10 -4 -10 -10z"/>
<path d="M260 120 c0 -5 5 -10 10 -10 6 0 10 5 10 10 0 6 -4 10 -10 10 -5 0
-10 -4 -10 -10z"/>
<path d="M310 120 c0 -5 5 -10 10 -10 6 0 10 5 10 10 0 6 -4 10 -10 10 -5 0
-10 -4 -10 -10z"/>
<path d="M360 120 c0 -5 5 -10 10 -10 6 0 10 5 10 10 0 6 -4 10 -10 10 -5 0
-10 -4 -10 -10z"/>
<path d="M410 120 c0 -5 5 -10 10 -10 6 0 10 5 10 10 0 6 -4 10 -10 10 -5 0
-10 -4 -10 -10z"/>
<path d="M460 120 c0 -5 5 -10 10 -10 6 0 10 5 10 10 0 6 -4 10 -10 10 -5 0
-10 -4 -10 -10z"/>
<path d="M510 120 c0 -5 5 -10 10 -10 6 0 10 5 10 10 0 6 -4 10 -10 10 -5 0
-10 -4 -10 -10z"/>
</g>
</svg>
