<?xml version="1.0" standalone="no"?>
<!DOCTYPE svg PUBLIC "-//W3C//DTD SVG 20010904//EN"
 "http://www.w3.org/TR/2001/REC-SVG-20010904/DTD/svg10.dtd">
<svg version="1.0" xmlns="http://www.w3.org/2000/svg"
 width="64.000000pt" height="64.000000pt" viewBox="0 0 64.000000 64.000000"
 preserveAspectRatio="xMidYMid meet">

<g transform="translate(0.000000,64.000000) scale(0.100000,-0.100000)"
fill="#000000" stroke="none">
<path d="M338 576 c-42 -52 -37 -57 40 -50 64 6 68 5 92 -21 35 -38 34 -132
-4 -208 -37 -77 -57 -93 -104 -81 -23 6 -53 6 -79 0 -52 -11 -71 2 -109 81
-37 75 -39 170 -5 207 18 19 34 26 64 26 43 0 48 23 6 28 -39 5 -77 -15 -100
-50 -30 -49 -23 -153 17 -228 16 -30 30 -58 32 -61 1 -4 -22 -9 -52 -11 -62
-5 -92 -25 -101 -68 -8 -38 16 -84 52 -99 36 -15 463 -11 463 4 0 6 -84 11
-227 13 -248 3 -263 6 -263 62 0 56 15 59 263 62 141 2 228 7 230 13 1 6 -22
11 -50 13 l-53 3 31 61 c39 77 50 178 25 226 -22 42 -68 66 -112 57 -32 -6
-47 6 -24 20 12 7 14 35 3 35 -5 0 -20 -16 -35 -34z"/>
<path d="M192 478 c-14 -14 -16 -58 -3 -58 7 0 31 51 31 66 0 8 -17 3 -28 -8z"/>
<path d="M185 380 c4 -6 11 -8 16 -5 14 9 11 15 -7 15 -8 0 -12 -5 -9 -10z"/>
</g>
</svg>
